<svg xmlns="http://www.w3.org/2000/svg" xmlns:xlink="http://www.w3.org/1999/xlink" width="500" zoomAndPan="magnify" viewBox="0 0 375 374.999991" height="500" preserveAspectRatio="xMidYMid meet" version="1.0"><defs><g/><clipPath id="ea6f2d1cd6"><path d="M 11.199219 88.8125 L 257.367188 88.8125 L 257.367188 258.742188 L 11.199219 258.742188 Z M 11.199219 88.8125 " clip-rule="nonzero"/></clipPath><clipPath id="9fe5109df4"><path d="M 78.058594 121.644531 L 125.824219 121.644531 L 125.824219 168.492188 L 78.058594 168.492188 Z M 78.058594 121.644531 " clip-rule="nonzero"/></clipPath><clipPath id="b5bd0c7fbd"><path d="M 123.140625 203.308594 L 359.203125 203.308594 L 359.203125 258.421875 L 123.140625 258.421875 Z M 123.140625 203.308594 " clip-rule="nonzero"/></clipPath></defs><g clip-path="url(#ea6f2d1cd6)"><path fill="#ff9202" d="M 542.351562 249.246094 C 544.996094 249.246094 547.140625 251.390625 547.140625 254.035156 C 547.140625 256.675781 544.996094 258.820312 542.351562 258.820312 L 50.898438 258.820312 C 46.167969 258.820312 41.863281 256.886719 38.75 253.773438 C 35.636719 250.65625 33.703125 246.355469 33.703125 241.625 L 33.703125 181.164062 L 25.175781 181.164062 C 21.84375 181.164062 19.101562 180.289062 16.960938 178.84375 C 14.59375 177.242188 13.023438 174.976562 12.234375 172.402344 L 12.226562 172.40625 C 11.496094 170.015625 11.472656 167.382812 12.132812 164.828125 C 12.914062 161.78125 14.671875 158.808594 17.339844 156.507812 L 90.613281 93.34375 C 94.125 90.324219 98.671875 88.8125 103.167969 88.8125 C 107.667969 88.8125 112.214844 90.324219 115.71875 93.34375 L 164.964844 135.9375 C 166.957031 137.65625 167.175781 140.671875 165.453125 142.664062 C 163.726562 144.660156 160.714844 144.875 158.722656 143.152344 L 109.476562 100.5625 C 107.792969 99.113281 105.503906 98.382812 103.167969 98.382812 C 100.835938 98.382812 98.542969 99.113281 96.855469 100.5625 L 23.582031 163.726562 C 22.429688 164.71875 21.683594 165.953125 21.367188 167.183594 C 21.144531 168.046875 21.136719 168.890625 21.351562 169.597656 L 21.347656 169.597656 L 21.351562 169.617188 C 21.511719 170.128906 21.828125 170.589844 22.308594 170.914062 C 22.933594 171.335938 23.878906 171.589844 25.175781 171.589844 L 38.488281 171.589844 C 41.128906 171.589844 43.273438 173.734375 43.273438 176.378906 L 43.273438 241.625 C 43.273438 243.714844 44.136719 245.621094 45.519531 247.003906 C 46.898438 248.386719 48.804688 249.246094 50.898438 249.246094 Z M 542.351562 249.246094 " fill-opacity="1" fill-rule="nonzero"/></g><g clip-path="url(#9fe5109df4)"><path fill="#ff9202" d="M 84.0625 121.644531 L 83.464844 122.84375 L 89.757812 126.441406 C 89.757812 129.4375 88.558594 131.832031 85.863281 133.332031 L 79.570312 129.734375 L 79.269531 130.335938 C 80.769531 134.832031 83.765625 137.828125 89.757812 137.828125 C 91.253906 137.828125 95.75 142.320312 98.148438 144.71875 L 102.941406 139.925781 C 100.542969 137.527344 95.152344 132.132812 95.152344 130.636719 C 95.152344 125.242188 93.652344 121.644531 84.0625 121.644531 Z M 121.519531 123.144531 L 115.527344 127.339844 L 114.925781 129.734375 L 97.546875 147.117188 L 95.152344 145.617188 L 93.953125 146.816406 C 93.953125 150.410156 89.757812 152.210938 87.960938 152.210938 L 78.070312 162.097656 C 78.070312 165.09375 81.367188 168.390625 84.363281 168.390625 L 94.253906 158.503906 C 94.253906 156.703125 96.050781 152.507812 99.644531 152.507812 L 100.84375 151.3125 L 99.347656 148.914062 L 116.726562 131.535156 L 119.121094 130.933594 L 123.316406 124.941406 Z M 106.539062 143.519531 L 101.742188 148.3125 C 105.339844 151.910156 110.132812 156.703125 110.132812 158.203125 C 110.132812 163.597656 111.632812 167.191406 121.21875 167.191406 L 121.820312 165.992188 L 115.527344 162.398438 C 115.527344 159.402344 116.726562 157.003906 119.421875 155.503906 L 125.714844 159.101562 L 126.015625 158.503906 C 124.515625 154.007812 121.519531 151.011719 115.527344 151.011719 C 114.027344 151.011719 110.132812 147.117188 106.539062 143.519531 Z M 106.539062 143.519531 " fill-opacity="1" fill-rule="nonzero"/></g><g fill="#002f6d" fill-opacity="1"><g transform="translate(66.97363, 225.428145)"><g><path d="M 28.9375 -10 L 31.671875 -2.203125 C 30.535156 -1.265625 29.101562 -0.53125 27.375 0 C 25.65625 0.53125 23.703125 0.796875 21.515625 0.796875 C 16.984375 0.796875 13.535156 -0.4375 11.171875 -2.90625 C 8.816406 -5.375 7.640625 -8.96875 7.640625 -13.6875 L 7.640625 -33.609375 L 1.25 -33.609375 L 1.25 -41.984375 L 7.640625 -41.984375 L 7.640625 -50.15625 L 18.171875 -51.859375 L 18.171875 -41.984375 L 30.078125 -41.984375 L 30.078125 -33.609375 L 18.171875 -33.609375 L 18.171875 -14.453125 C 18.171875 -12.367188 18.601562 -10.851562 19.46875 -9.90625 C 20.332031 -8.957031 21.585938 -8.484375 23.234375 -8.484375 C 25.109375 -8.484375 26.742188 -8.988281 28.140625 -10 Z M 28.9375 -10 "/></g></g></g><g fill="#002f6d" fill-opacity="1"><g transform="translate(95.89786, 225.428145)"><g><path d="M 16.34375 0.796875 C 13.65625 0.796875 11.320312 0.300781 9.34375 -0.6875 C 7.375 -1.675781 5.851562 -3.125 4.78125 -5.03125 C 3.71875 -6.945312 3.1875 -9.25 3.1875 -11.9375 C 3.1875 -14.425781 3.71875 -16.507812 4.78125 -18.1875 C 5.851562 -19.875 7.503906 -21.253906 9.734375 -22.328125 C 11.960938 -23.410156 14.878906 -24.242188 18.484375 -24.828125 C 20.992188 -25.234375 22.898438 -25.675781 24.203125 -26.15625 C 25.503906 -26.644531 26.382812 -27.191406 26.84375 -27.796875 C 27.300781 -28.398438 27.53125 -29.171875 27.53125 -30.109375 C 27.53125 -31.453125 27.0625 -32.476562 26.125 -33.1875 C 25.1875 -33.90625 23.628906 -34.265625 21.453125 -34.265625 C 19.117188 -34.265625 16.898438 -33.742188 14.796875 -32.703125 C 12.691406 -31.660156 10.863281 -30.289062 9.3125 -28.59375 L 8.5625 -28.59375 L 4.140625 -35.25 C 6.273438 -37.601562 8.875 -39.4375 11.9375 -40.75 C 15.007812 -42.070312 18.359375 -42.734375 21.984375 -42.734375 C 27.535156 -42.734375 31.550781 -41.554688 34.03125 -39.203125 C 36.519531 -36.847656 37.765625 -33.503906 37.765625 -29.171875 L 37.765625 -10.953125 C 37.765625 -9.078125 38.585938 -8.140625 40.234375 -8.140625 C 40.867188 -8.140625 41.488281 -8.253906 42.09375 -8.484375 L 42.625 -8.328125 L 43.390625 -0.984375 C 42.804688 -0.609375 41.992188 -0.300781 40.953125 -0.0625 C 39.910156 0.175781 38.769531 0.296875 37.53125 0.296875 C 35.019531 0.296875 33.0625 -0.179688 31.65625 -1.140625 C 30.25 -2.097656 29.238281 -3.609375 28.625 -5.671875 L 27.828125 -5.734375 C 25.773438 -1.378906 21.945312 0.796875 16.34375 0.796875 Z M 19.703125 -7.078125 C 22.128906 -7.078125 24.070312 -7.894531 25.53125 -9.53125 C 26.988281 -11.164062 27.71875 -13.4375 27.71875 -16.34375 L 27.71875 -20.609375 L 27 -20.765625 C 26.363281 -20.253906 25.53125 -19.828125 24.5 -19.484375 C 23.476562 -19.140625 22.003906 -18.804688 20.078125 -18.484375 C 17.796875 -18.097656 16.15625 -17.441406 15.15625 -16.515625 C 14.15625 -15.597656 13.65625 -14.289062 13.65625 -12.59375 C 13.65625 -10.789062 14.1875 -9.421875 15.25 -8.484375 C 16.3125 -7.546875 17.796875 -7.078125 19.703125 -7.078125 Z M 19.703125 -7.078125 "/></g></g></g><g fill="#002f6d" fill-opacity="1"><g transform="translate(136.456647, 225.428145)"><g><path d="M 17.421875 0.796875 C 13.640625 0.796875 10.753906 -0.222656 8.765625 -2.265625 C 6.773438 -4.304688 5.78125 -7.40625 5.78125 -11.5625 L 5.78125 -58.78125 L 16.3125 -58.78125 L 16.3125 -11.984375 C 16.3125 -9.421875 17.375 -8.140625 19.5 -8.140625 C 20.113281 -8.140625 20.765625 -8.238281 21.453125 -8.4375 L 21.984375 -8.296875 L 22.921875 -0.1875 C 22.335938 0.113281 21.566406 0.351562 20.609375 0.53125 C 19.648438 0.707031 18.585938 0.796875 17.421875 0.796875 Z M 17.421875 0.796875 "/></g></g></g><g fill="#002f6d" fill-opacity="1"><g transform="translate(156.902088, 225.428145)"><g><path d="M 16.34375 0.796875 C 13.65625 0.796875 11.320312 0.300781 9.34375 -0.6875 C 7.375 -1.675781 5.851562 -3.125 4.78125 -5.03125 C 3.71875 -6.945312 3.1875 -9.25 3.1875 -11.9375 C 3.1875 -14.425781 3.71875 -16.507812 4.78125 -18.1875 C 5.851562 -19.875 7.503906 -21.253906 9.734375 -22.328125 C 11.960938 -23.410156 14.878906 -24.242188 18.484375 -24.828125 C 20.992188 -25.234375 22.898438 -25.675781 24.203125 -26.15625 C 25.503906 -26.644531 26.382812 -27.191406 26.84375 -27.796875 C 27.300781 -28.398438 27.53125 -29.171875 27.53125 -30.109375 C 27.53125 -31.453125 27.0625 -32.476562 26.125 -33.1875 C 25.1875 -33.90625 23.628906 -34.265625 21.453125 -34.265625 C 19.117188 -34.265625 16.898438 -33.742188 14.796875 -32.703125 C 12.691406 -31.660156 10.863281 -30.289062 9.3125 -28.59375 L 8.5625 -28.59375 L 4.140625 -35.25 C 6.273438 -37.601562 8.875 -39.4375 11.9375 -40.75 C 15.007812 -42.070312 18.359375 -42.734375 21.984375 -42.734375 C 27.535156 -42.734375 31.550781 -41.554688 34.03125 -39.203125 C 36.519531 -36.847656 37.765625 -33.503906 37.765625 -29.171875 L 37.765625 -10.953125 C 37.765625 -9.078125 38.585938 -8.140625 40.234375 -8.140625 C 40.867188 -8.140625 41.488281 -8.253906 42.09375 -8.484375 L 42.625 -8.328125 L 43.390625 -0.984375 C 42.804688 -0.609375 41.992188 -0.300781 40.953125 -0.0625 C 39.910156 0.175781 38.769531 0.296875 37.53125 0.296875 C 35.019531 0.296875 33.0625 -0.179688 31.65625 -1.140625 C 30.25 -2.097656 29.238281 -3.609375 28.625 -5.671875 L 27.828125 -5.734375 C 25.773438 -1.378906 21.945312 0.796875 16.34375 0.796875 Z M 19.703125 -7.078125 C 22.128906 -7.078125 24.070312 -7.894531 25.53125 -9.53125 C 26.988281 -11.164062 27.71875 -13.4375 27.71875 -16.34375 L 27.71875 -20.609375 L 27 -20.765625 C 26.363281 -20.253906 25.53125 -19.828125 24.5 -19.484375 C 23.476562 -19.140625 22.003906 -18.804688 20.078125 -18.484375 C 17.796875 -18.097656 16.15625 -17.441406 15.15625 -16.515625 C 14.15625 -15.597656 13.65625 -14.289062 13.65625 -12.59375 C 13.65625 -10.789062 14.1875 -9.421875 15.25 -8.484375 C 16.3125 -7.546875 17.796875 -7.078125 19.703125 -7.078125 Z M 19.703125 -7.078125 "/></g></g></g><g fill="#002f6d" fill-opacity="1"><g transform="translate(197.460875, 225.428145)"><g><path d="M 29.3125 0.796875 C 23.96875 0.796875 19.988281 -1.203125 17.375 -5.203125 L 16.578125 -5.0625 L 16.578125 0 L 6.046875 0 L 6.046875 -58.78125 L 16.578125 -58.78125 L 16.578125 -37 L 17.375 -36.84375 C 18.820312 -38.84375 20.523438 -40.320312 22.484375 -41.28125 C 24.453125 -42.25 26.804688 -42.734375 29.546875 -42.734375 C 32.941406 -42.734375 35.90625 -41.9375 38.4375 -40.34375 C 40.976562 -38.75 42.957031 -36.320312 44.375 -33.0625 C 45.789062 -29.800781 46.5 -25.765625 46.5 -20.953125 C 46.5 -16.179688 45.765625 -12.164062 44.296875 -8.90625 C 42.828125 -5.65625 40.800781 -3.222656 38.21875 -1.609375 C 35.632812 -0.00390625 32.664062 0.796875 29.3125 0.796875 Z M 26.125 -8.140625 C 29.21875 -8.140625 31.570312 -9.171875 33.1875 -11.234375 C 34.8125 -13.296875 35.625 -16.535156 35.625 -20.953125 C 35.625 -25.390625 34.8125 -28.640625 33.1875 -30.703125 C 31.570312 -32.765625 29.21875 -33.796875 26.125 -33.796875 C 23.15625 -33.796875 20.800781 -32.734375 19.0625 -30.609375 C 17.332031 -28.484375 16.46875 -25.265625 16.46875 -20.953125 C 16.46875 -16.640625 17.332031 -13.425781 19.0625 -11.3125 C 20.800781 -9.195312 23.15625 -8.140625 26.125 -8.140625 Z M 26.125 -8.140625 "/></g></g></g><g fill="#002f6d" fill-opacity="1"><g transform="translate(244.027042, 225.428145)"><g><path d="M 16.34375 0.796875 C 13.65625 0.796875 11.320312 0.300781 9.34375 -0.6875 C 7.375 -1.675781 5.851562 -3.125 4.78125 -5.03125 C 3.71875 -6.945312 3.1875 -9.25 3.1875 -11.9375 C 3.1875 -14.425781 3.71875 -16.507812 4.78125 -18.1875 C 5.851562 -19.875 7.503906 -21.253906 9.734375 -22.328125 C 11.960938 -23.410156 14.878906 -24.242188 18.484375 -24.828125 C 20.992188 -25.234375 22.898438 -25.675781 24.203125 -26.15625 C 25.503906 -26.644531 26.382812 -27.191406 26.84375 -27.796875 C 27.300781 -28.398438 27.53125 -29.171875 27.53125 -30.109375 C 27.53125 -31.453125 27.0625 -32.476562 26.125 -33.1875 C 25.1875 -33.90625 23.628906 -34.265625 21.453125 -34.265625 C 19.117188 -34.265625 16.898438 -33.742188 14.796875 -32.703125 C 12.691406 -31.660156 10.863281 -30.289062 9.3125 -28.59375 L 8.5625 -28.59375 L 4.140625 -35.25 C 6.273438 -37.601562 8.875 -39.4375 11.9375 -40.75 C 15.007812 -42.070312 18.359375 -42.734375 21.984375 -42.734375 C 27.535156 -42.734375 31.550781 -41.554688 34.03125 -39.203125 C 36.519531 -36.847656 37.765625 -33.503906 37.765625 -29.171875 L 37.765625 -10.953125 C 37.765625 -9.078125 38.585938 -8.140625 40.234375 -8.140625 C 40.867188 -8.140625 41.488281 -8.253906 42.09375 -8.484375 L 42.625 -8.328125 L 43.390625 -0.984375 C 42.804688 -0.609375 41.992188 -0.300781 40.953125 -0.0625 C 39.910156 0.175781 38.769531 0.296875 37.53125 0.296875 C 35.019531 0.296875 33.0625 -0.179688 31.65625 -1.140625 C 30.25 -2.097656 29.238281 -3.609375 28.625 -5.671875 L 27.828125 -5.734375 C 25.773438 -1.378906 21.945312 0.796875 16.34375 0.796875 Z M 19.703125 -7.078125 C 22.128906 -7.078125 24.070312 -7.894531 25.53125 -9.53125 C 26.988281 -11.164062 27.71875 -13.4375 27.71875 -16.34375 L 27.71875 -20.609375 L 27 -20.765625 C 26.363281 -20.253906 25.53125 -19.828125 24.5 -19.484375 C 23.476562 -19.140625 22.003906 -18.804688 20.078125 -18.484375 C 17.796875 -18.097656 16.15625 -17.441406 15.15625 -16.515625 C 14.15625 -15.597656 13.65625 -14.289062 13.65625 -12.59375 C 13.65625 -10.789062 14.1875 -9.421875 15.25 -8.484375 C 16.3125 -7.546875 17.796875 -7.078125 19.703125 -7.078125 Z M 19.703125 -7.078125 "/></g></g></g><g fill="#002f6d" fill-opacity="1"><g transform="translate(284.585824, 225.428145)"><g><path d="M 9.28125 17.796875 C 7.476562 17.796875 5.847656 17.65625 4.390625 17.375 C 2.929688 17.09375 1.75 16.726562 0.84375 16.28125 L 2.515625 7.75 L 3.1875 7.53125 C 3.820312 7.851562 4.609375 8.113281 5.546875 8.3125 C 6.484375 8.519531 7.445312 8.625 8.4375 8.625 C 10.132812 8.625 11.546875 8.398438 12.671875 7.953125 C 13.804688 7.515625 14.765625 6.78125 15.546875 5.75 C 16.335938 4.726562 17.035156 3.304688 17.640625 1.484375 L 0.90625 -41.9375 L 11.9375 -41.9375 L 22.359375 -12.78125 L 23.265625 -12.78125 L 33.421875 -41.9375 L 44.140625 -41.9375 L 27.296875 2.625 C 25.953125 6.21875 24.472656 9.113281 22.859375 11.3125 C 21.253906 13.507812 19.351562 15.140625 17.15625 16.203125 C 14.96875 17.265625 12.34375 17.796875 9.28125 17.796875 Z M 9.28125 17.796875 "/></g></g></g><g fill="#002f6d" fill-opacity="1"><g transform="translate(325.943044, 225.428145)"><g><path d="M 28.9375 -10 L 31.671875 -2.203125 C 30.535156 -1.265625 29.101562 -0.53125 27.375 0 C 25.65625 0.53125 23.703125 0.796875 21.515625 0.796875 C 16.984375 0.796875 13.535156 -0.4375 11.171875 -2.90625 C 8.816406 -5.375 7.640625 -8.96875 7.640625 -13.6875 L 7.640625 -33.609375 L 1.25 -33.609375 L 1.25 -41.984375 L 7.640625 -41.984375 L 7.640625 -50.15625 L 18.171875 -51.859375 L 18.171875 -41.984375 L 30.078125 -41.984375 L 30.078125 -33.609375 L 18.171875 -33.609375 L 18.171875 -14.453125 C 18.171875 -12.367188 18.601562 -10.851562 19.46875 -9.90625 C 20.332031 -8.957031 21.585938 -8.484375 23.234375 -8.484375 C 25.109375 -8.484375 26.742188 -8.988281 28.140625 -10 Z M 28.9375 -10 "/></g></g></g><g clip-path="url(#b5bd0c7fbd)"><path fill="#ff9202" d="M 612.753906 249.246094 C 615.398438 249.246094 617.539062 251.390625 617.539062 254.035156 C 617.539062 256.675781 615.398438 258.820312 612.753906 258.820312 L 121.300781 258.820312 C 116.566406 258.820312 112.265625 256.886719 109.152344 253.773438 C 106.039062 250.65625 104.105469 246.355469 104.105469 241.625 L 104.105469 181.164062 L 95.574219 181.164062 C 92.246094 181.164062 89.503906 180.289062 87.363281 178.84375 C 84.992188 177.242188 83.421875 174.976562 82.632812 172.402344 L 82.628906 172.40625 C 81.898438 170.015625 81.875 167.382812 82.53125 164.828125 C 83.3125 161.78125 85.070312 158.808594 87.742188 156.507812 L 161.015625 93.34375 C 164.523438 90.324219 169.070312 88.8125 173.570312 88.8125 C 178.066406 88.8125 182.617188 90.324219 186.121094 93.34375 L 235.363281 135.9375 C 237.359375 137.65625 237.574219 140.671875 235.851562 142.664062 C 234.128906 144.660156 231.113281 144.875 229.121094 143.152344 L 179.878906 100.5625 C 178.195312 99.113281 175.90625 98.382812 173.570312 98.382812 C 171.234375 98.382812 168.941406 99.113281 167.257812 100.5625 L 93.984375 163.726562 C 92.832031 164.71875 92.082031 165.953125 91.769531 167.183594 C 91.546875 168.046875 91.539062 168.890625 91.753906 169.597656 L 91.75 169.597656 L 91.753906 169.617188 C 91.910156 170.128906 92.230469 170.589844 92.710938 170.914062 C 93.335938 171.335938 94.277344 171.589844 95.574219 171.589844 L 108.890625 171.589844 C 111.53125 171.589844 113.675781 173.734375 113.675781 176.378906 L 113.675781 241.625 C 113.675781 243.714844 114.535156 245.621094 115.917969 247.003906 C 117.300781 248.386719 119.207031 249.246094 121.300781 249.246094 Z M 612.753906 249.246094 " fill-opacity="1" fill-rule="nonzero"/></g><g fill="#002f6d" fill-opacity="1"><g transform="translate(36.123291, 281.227731)"><g><path d="M 8.546875 -10.296875 L 10.5 -3.953125 L 12.453125 -10.296875 L 14.609375 -10.296875 L 11.4375 0 L 9.5625 0 L 7.421875 -6.875 L 5.3125 0 L 3.421875 0 L 0.25 -10.296875 L 2.40625 -10.296875 L 4.359375 -3.953125 L 6.328125 -10.296875 Z M 8.546875 -10.296875 "/></g></g></g><g fill="#002f6d" fill-opacity="1"><g transform="translate(53.421186, 281.227731)"><g><path d="M 2.9375 -5.875 L 6.953125 -5.875 L 6.953125 -10.296875 L 9.03125 -10.296875 L 9.03125 0 L 6.953125 0 L 6.953125 -4.125 L 2.9375 -4.125 L 2.9375 0 L 0.875 0 L 0.875 -10.296875 L 2.9375 -10.296875 Z M 2.9375 -5.875 "/></g></g></g><g fill="#002f6d" fill-opacity="1"><g transform="translate(65.751634, 281.227731)"><g><path d="M 2.9375 -4.28125 L 2.9375 -1.75 L 7.703125 -1.75 L 7.703125 0 L 0.875 0 L 0.875 -10.296875 L 7.5625 -10.296875 L 7.5625 -8.546875 L 2.9375 -8.546875 L 2.9375 -6.03125 L 7.34375 -6.03125 L 7.34375 -4.28125 Z M 2.9375 -4.28125 "/></g></g></g><g fill="#002f6d" fill-opacity="1"><g transform="translate(76.480153, 281.227731)"><g><path d="M 7.875 -7.359375 C 7.875 -6.523438 7.695312 -5.859375 7.34375 -5.359375 C 6.988281 -4.867188 6.460938 -4.535156 5.765625 -4.359375 L 8.3125 0 L 5.9375 0 L 3.5 -4.1875 L 2.9375 -4.1875 L 2.9375 0 L 0.875 0 L 0.875 -10.296875 L 4.359375 -10.296875 C 5.523438 -10.296875 6.398438 -10.035156 6.984375 -9.515625 C 7.578125 -9.003906 7.875 -8.285156 7.875 -7.359375 Z M 2.9375 -8.546875 L 2.9375 -5.9375 L 4.359375 -5.9375 C 4.859375 -5.9375 5.222656 -6.03125 5.453125 -6.21875 C 5.691406 -6.414062 5.8125 -6.78125 5.8125 -7.3125 C 5.8125 -7.675781 5.691406 -7.972656 5.453125 -8.203125 C 5.222656 -8.429688 4.859375 -8.546875 4.359375 -8.546875 Z M 2.9375 -8.546875 "/></g></g></g><g fill="#002f6d" fill-opacity="1"><g transform="translate(87.487905, 281.227731)"><g><path d="M 2.9375 -4.28125 L 2.9375 -1.75 L 7.703125 -1.75 L 7.703125 0 L 0.875 0 L 0.875 -10.296875 L 7.5625 -10.296875 L 7.5625 -8.546875 L 2.9375 -8.546875 L 2.9375 -6.03125 L 7.34375 -6.03125 L 7.34375 -4.28125 Z M 2.9375 -4.28125 "/></g></g></g><g fill="#002f6d" fill-opacity="1"><g transform="translate(98.216421, 281.227731)"><g/></g></g><g fill="#002f6d" fill-opacity="1"><g transform="translate(105.211997, 281.227731)"><g><path d="M 2.9375 -5.875 L 6.953125 -5.875 L 6.953125 -10.296875 L 9.03125 -10.296875 L 9.03125 0 L 6.953125 0 L 6.953125 -4.125 L 2.9375 -4.125 L 2.9375 0 L 0.875 0 L 0.875 -10.296875 L 2.9375 -10.296875 Z M 2.9375 -5.875 "/></g></g></g><g fill="#002f6d" fill-opacity="1"><g transform="translate(117.542443, 281.227731)"><g><path d="M 5.203125 0.140625 C 4.515625 0.140625 3.890625 0.0546875 3.328125 -0.109375 C 2.773438 -0.285156 2.300781 -0.578125 1.90625 -0.984375 C 1.507812 -1.398438 1.195312 -1.941406 0.96875 -2.609375 C 0.75 -3.285156 0.640625 -4.128906 0.640625 -5.140625 C 0.640625 -6.148438 0.75 -6.992188 0.96875 -7.671875 C 1.195312 -8.347656 1.507812 -8.890625 1.90625 -9.296875 C 2.300781 -9.710938 2.773438 -10.003906 3.328125 -10.171875 C 3.890625 -10.347656 4.515625 -10.4375 5.203125 -10.4375 C 5.890625 -10.4375 6.515625 -10.347656 7.078125 -10.171875 C 7.640625 -10.003906 8.117188 -9.710938 8.515625 -9.296875 C 8.910156 -8.890625 9.21875 -8.347656 9.4375 -7.671875 C 9.664062 -6.992188 9.78125 -6.148438 9.78125 -5.140625 C 9.78125 -4.128906 9.664062 -3.285156 9.4375 -2.609375 C 9.21875 -1.941406 8.910156 -1.398438 8.515625 -0.984375 C 8.117188 -0.578125 7.640625 -0.285156 7.078125 -0.109375 C 6.515625 0.0546875 5.890625 0.140625 5.203125 0.140625 Z M 5.203125 -1.609375 C 5.578125 -1.609375 5.914062 -1.660156 6.21875 -1.765625 C 6.53125 -1.867188 6.796875 -2.054688 7.015625 -2.328125 C 7.234375 -2.597656 7.398438 -2.960938 7.515625 -3.421875 C 7.640625 -3.878906 7.703125 -4.453125 7.703125 -5.140625 C 7.703125 -5.835938 7.640625 -6.414062 7.515625 -6.875 C 7.398438 -7.332031 7.234375 -7.691406 7.015625 -7.953125 C 6.796875 -8.222656 6.53125 -8.410156 6.21875 -8.515625 C 5.914062 -8.628906 5.578125 -8.6875 5.203125 -8.6875 C 4.828125 -8.6875 4.488281 -8.628906 4.1875 -8.515625 C 3.882812 -8.410156 3.625 -8.222656 3.40625 -7.953125 C 3.1875 -7.691406 3.015625 -7.332031 2.890625 -6.875 C 2.773438 -6.414062 2.71875 -5.835938 2.71875 -5.140625 C 2.71875 -4.453125 2.773438 -3.878906 2.890625 -3.421875 C 3.015625 -2.960938 3.1875 -2.597656 3.40625 -2.328125 C 3.625 -2.054688 3.882812 -1.867188 4.1875 -1.765625 C 4.488281 -1.660156 4.828125 -1.609375 5.203125 -1.609375 Z M 5.203125 -1.609375 "/></g></g></g><g fill="#002f6d" fill-opacity="1"><g transform="translate(130.401969, 281.227731)"><g><path d="M 3.40625 -10.296875 L 5.984375 -3.484375 L 8.5625 -10.296875 L 10.71875 -10.296875 L 11.265625 0 L 9.1875 0 L 8.90625 -5.421875 L 6.84375 0 L 5.140625 0 L 3.078125 -5.421875 L 2.796875 0 L 0.71875 0 L 1.265625 -10.296875 Z M 3.40625 -10.296875 "/></g></g></g><g fill="#002f6d" fill-opacity="1"><g transform="translate(144.819332, 281.227731)"><g><path d="M 2.9375 -4.28125 L 2.9375 -1.75 L 7.703125 -1.75 L 7.703125 0 L 0.875 0 L 0.875 -10.296875 L 7.5625 -10.296875 L 7.5625 -8.546875 L 2.9375 -8.546875 L 2.9375 -6.03125 L 7.34375 -6.03125 L 7.34375 -4.28125 Z M 2.9375 -4.28125 "/></g></g></g><g fill="#002f6d" fill-opacity="1"><g transform="translate(155.547855, 281.227731)"><g/></g></g><g fill="#002f6d" fill-opacity="1"><g transform="translate(162.543437, 281.227731)"><g><path d="M 9.546875 -3.09375 C 9.390625 -2.5 9.164062 -1.992188 8.875 -1.578125 C 8.59375 -1.171875 8.257812 -0.835938 7.875 -0.578125 C 7.5 -0.316406 7.082031 -0.128906 6.625 -0.015625 C 6.175781 0.0859375 5.703125 0.140625 5.203125 0.140625 C 4.578125 0.140625 3.988281 0.0546875 3.4375 -0.109375 C 2.882812 -0.285156 2.398438 -0.578125 1.984375 -0.984375 C 1.578125 -1.390625 1.25 -1.925781 1 -2.59375 C 0.757812 -3.269531 0.640625 -4.113281 0.640625 -5.125 C 0.640625 -6.132812 0.757812 -6.976562 1 -7.65625 C 1.25 -8.332031 1.578125 -8.875 1.984375 -9.28125 C 2.398438 -9.695312 2.882812 -9.992188 3.4375 -10.171875 C 3.988281 -10.347656 4.578125 -10.4375 5.203125 -10.4375 C 5.679688 -10.4375 6.140625 -10.378906 6.578125 -10.265625 C 7.023438 -10.160156 7.429688 -9.988281 7.796875 -9.75 C 8.160156 -9.519531 8.484375 -9.21875 8.765625 -8.84375 C 9.054688 -8.476562 9.289062 -8.023438 9.46875 -7.484375 L 7.515625 -6.859375 C 7.421875 -7.203125 7.296875 -7.492188 7.140625 -7.734375 C 6.984375 -7.972656 6.800781 -8.160156 6.59375 -8.296875 C 6.394531 -8.441406 6.175781 -8.539062 5.9375 -8.59375 C 5.695312 -8.65625 5.453125 -8.6875 5.203125 -8.6875 C 4.859375 -8.6875 4.535156 -8.628906 4.234375 -8.515625 C 3.941406 -8.410156 3.679688 -8.222656 3.453125 -7.953125 C 3.222656 -7.691406 3.039062 -7.328125 2.90625 -6.859375 C 2.78125 -6.398438 2.71875 -5.820312 2.71875 -5.125 C 2.71875 -4.4375 2.78125 -3.863281 2.90625 -3.40625 C 3.039062 -2.945312 3.222656 -2.582031 3.453125 -2.3125 C 3.679688 -2.050781 3.941406 -1.867188 4.234375 -1.765625 C 4.535156 -1.660156 4.859375 -1.609375 5.203125 -1.609375 C 5.460938 -1.609375 5.710938 -1.640625 5.953125 -1.703125 C 6.203125 -1.773438 6.425781 -1.890625 6.625 -2.046875 C 6.832031 -2.210938 7.015625 -2.425781 7.171875 -2.6875 C 7.328125 -2.945312 7.453125 -3.265625 7.546875 -3.640625 Z M 9.546875 -3.09375 "/></g></g></g><g fill="#002f6d" fill-opacity="1"><g transform="translate(175.020859, 281.227731)"><g><path d="M 6.953125 -2.21875 L 3.28125 -2.21875 L 2.484375 0 L 0.25 0 L 4.015625 -10.296875 L 6.21875 -10.296875 L 9.984375 0 L 7.75 0 Z M 3.9375 -3.96875 L 6.28125 -3.96875 L 5.109375 -7.296875 Z M 3.9375 -3.96875 "/></g></g></g><g fill="#002f6d" fill-opacity="1"><g transform="translate(187.68933, 281.227731)"><g><path d="M 7.875 -7.359375 C 7.875 -6.523438 7.695312 -5.859375 7.34375 -5.359375 C 6.988281 -4.867188 6.460938 -4.535156 5.765625 -4.359375 L 8.3125 0 L 5.9375 0 L 3.5 -4.1875 L 2.9375 -4.1875 L 2.9375 0 L 0.875 0 L 0.875 -10.296875 L 4.359375 -10.296875 C 5.523438 -10.296875 6.398438 -10.035156 6.984375 -9.515625 C 7.578125 -9.003906 7.875 -8.285156 7.875 -7.359375 Z M 2.9375 -8.546875 L 2.9375 -5.9375 L 4.359375 -5.9375 C 4.859375 -5.9375 5.222656 -6.03125 5.453125 -6.21875 C 5.691406 -6.414062 5.8125 -6.78125 5.8125 -7.3125 C 5.8125 -7.675781 5.691406 -7.972656 5.453125 -8.203125 C 5.222656 -8.429688 4.859375 -8.546875 4.359375 -8.546875 Z M 2.9375 -8.546875 "/></g></g></g><g fill="#002f6d" fill-opacity="1"><g transform="translate(198.697089, 281.227731)"><g><path d="M 2.9375 -4.28125 L 2.9375 -1.75 L 7.703125 -1.75 L 7.703125 0 L 0.875 0 L 0.875 -10.296875 L 7.5625 -10.296875 L 7.5625 -8.546875 L 2.9375 -8.546875 L 2.9375 -6.03125 L 7.34375 -6.03125 L 7.34375 -4.28125 Z M 2.9375 -4.28125 "/></g></g></g><g fill="#002f6d" fill-opacity="1"><g transform="translate(209.425612, 281.227731)"><g/></g></g><g fill="#002f6d" fill-opacity="1"><g transform="translate(216.421194, 281.227731)"><g><path d="M 3.40625 -10.296875 L 5.984375 -3.484375 L 8.5625 -10.296875 L 10.71875 -10.296875 L 11.265625 0 L 9.1875 0 L 8.90625 -5.421875 L 6.84375 0 L 5.140625 0 L 3.078125 -5.421875 L 2.796875 0 L 0.71875 0 L 1.265625 -10.296875 Z M 3.40625 -10.296875 "/></g></g></g><g fill="#002f6d" fill-opacity="1"><g transform="translate(230.838564, 281.227731)"><g><path d="M 2.9375 -4.28125 L 2.9375 -1.75 L 7.703125 -1.75 L 7.703125 0 L 0.875 0 L 0.875 -10.296875 L 7.5625 -10.296875 L 7.5625 -8.546875 L 2.9375 -8.546875 L 2.9375 -6.03125 L 7.34375 -6.03125 L 7.34375 -4.28125 Z M 2.9375 -4.28125 "/></g></g></g><g fill="#002f6d" fill-opacity="1"><g transform="translate(241.567087, 281.227731)"><g><path d="M 2.9375 -4.28125 L 2.9375 -1.75 L 7.703125 -1.75 L 7.703125 0 L 0.875 0 L 0.875 -10.296875 L 7.5625 -10.296875 L 7.5625 -8.546875 L 2.9375 -8.546875 L 2.9375 -6.03125 L 7.34375 -6.03125 L 7.34375 -4.28125 Z M 2.9375 -4.28125 "/></g></g></g><g fill="#002f6d" fill-opacity="1"><g transform="translate(252.29561, 281.227731)"><g><path d="M 5.359375 -8.546875 L 5.359375 0 L 3.28125 0 L 3.28125 -8.546875 L 0.53125 -8.546875 L 0.53125 -10.296875 L 8.09375 -10.296875 L 8.09375 -8.546875 Z M 5.359375 -8.546875 "/></g></g></g><g fill="#002f6d" fill-opacity="1"><g transform="translate(263.376853, 281.227731)"><g><path d="M 8.234375 -3 C 8.234375 -2.40625 8.128906 -1.90625 7.921875 -1.5 C 7.722656 -1.09375 7.445312 -0.765625 7.09375 -0.515625 C 6.75 -0.273438 6.335938 -0.101562 5.859375 0 C 5.390625 0.09375 4.890625 0.140625 4.359375 0.140625 C 3.628906 0.140625 2.941406 0.046875 2.296875 -0.140625 C 1.648438 -0.328125 1.078125 -0.566406 0.578125 -0.859375 L 1.375 -2.515625 C 1.65625 -2.335938 1.910156 -2.1875 2.140625 -2.0625 C 2.367188 -1.945312 2.597656 -1.851562 2.828125 -1.78125 C 3.054688 -1.71875 3.289062 -1.671875 3.53125 -1.640625 C 3.78125 -1.617188 4.054688 -1.609375 4.359375 -1.609375 C 4.878906 -1.609375 5.304688 -1.703125 5.640625 -1.890625 C 5.984375 -2.085938 6.15625 -2.4375 6.15625 -2.9375 C 6.15625 -3.21875 6.078125 -3.4375 5.921875 -3.59375 C 5.773438 -3.757812 5.578125 -3.890625 5.328125 -3.984375 C 5.078125 -4.085938 4.789062 -4.175781 4.46875 -4.25 C 4.15625 -4.320312 3.832031 -4.398438 3.5 -4.484375 C 3.164062 -4.566406 2.835938 -4.675781 2.515625 -4.8125 C 2.203125 -4.957031 1.921875 -5.148438 1.671875 -5.390625 C 1.421875 -5.628906 1.21875 -5.929688 1.0625 -6.296875 C 0.914062 -6.671875 0.84375 -7.128906 0.84375 -7.671875 C 0.84375 -8.140625 0.929688 -8.546875 1.109375 -8.890625 C 1.296875 -9.242188 1.550781 -9.535156 1.875 -9.765625 C 2.207031 -9.992188 2.585938 -10.160156 3.015625 -10.265625 C 3.453125 -10.378906 3.921875 -10.4375 4.421875 -10.4375 C 5.160156 -10.4375 5.820312 -10.359375 6.40625 -10.203125 C 7 -10.046875 7.53125 -9.851562 8 -9.625 L 7.3125 -7.984375 C 6.957031 -8.171875 6.539062 -8.332031 6.0625 -8.46875 C 5.582031 -8.613281 5.035156 -8.6875 4.421875 -8.6875 C 3.992188 -8.6875 3.632812 -8.601562 3.34375 -8.4375 C 3.050781 -8.269531 2.90625 -8.015625 2.90625 -7.671875 C 2.90625 -7.265625 3.035156 -6.957031 3.296875 -6.75 C 3.566406 -6.550781 3.894531 -6.394531 4.28125 -6.28125 C 4.675781 -6.175781 5.101562 -6.078125 5.5625 -5.984375 C 6.03125 -5.898438 6.457031 -5.753906 6.84375 -5.546875 C 7.238281 -5.335938 7.566406 -5.035156 7.828125 -4.640625 C 8.097656 -4.253906 8.234375 -3.707031 8.234375 -3 Z M 8.234375 -3 "/></g></g></g><g fill="#002f6d" fill-opacity="1"><g transform="translate(274.678536, 281.227731)"><g/></g></g><g fill="#002f6d" fill-opacity="1"><g transform="translate(281.674105, 281.227731)"><g><path d="M 9.046875 1.765625 C 8.503906 1.765625 8.019531 1.738281 7.59375 1.6875 C 7.175781 1.632812 6.789062 1.546875 6.4375 1.421875 C 6.09375 1.296875 5.769531 1.128906 5.46875 0.921875 C 5.175781 0.710938 4.890625 0.445312 4.609375 0.125 C 4.003906 0.0820312 3.457031 -0.0390625 2.96875 -0.25 C 2.488281 -0.457031 2.070312 -0.765625 1.71875 -1.171875 C 1.375 -1.585938 1.109375 -2.117188 0.921875 -2.765625 C 0.734375 -3.421875 0.640625 -4.210938 0.640625 -5.140625 C 0.640625 -6.148438 0.75 -6.992188 0.96875 -7.671875 C 1.195312 -8.347656 1.507812 -8.890625 1.90625 -9.296875 C 2.300781 -9.710938 2.773438 -10.003906 3.328125 -10.171875 C 3.890625 -10.347656 4.515625 -10.4375 5.203125 -10.4375 C 5.890625 -10.4375 6.515625 -10.347656 7.078125 -10.171875 C 7.640625 -10.003906 8.117188 -9.710938 8.515625 -9.296875 C 8.910156 -8.890625 9.21875 -8.347656 9.4375 -7.671875 C 9.664062 -6.992188 9.78125 -6.148438 9.78125 -5.140625 C 9.78125 -3.742188 9.566406 -2.65625 9.140625 -1.875 C 8.722656 -1.101562 8.148438 -0.5625 7.421875 -0.25 C 7.734375 -0.125 8.066406 -0.046875 8.421875 -0.015625 C 8.785156 0.00390625 9.21875 0.015625 9.71875 0.015625 Z M 5.203125 -1.609375 C 5.578125 -1.609375 5.914062 -1.660156 6.21875 -1.765625 C 6.53125 -1.867188 6.796875 -2.054688 7.015625 -2.328125 C 7.234375 -2.597656 7.398438 -2.960938 7.515625 -3.421875 C 7.640625 -3.878906 7.703125 -4.453125 7.703125 -5.140625 C 7.703125 -5.835938 7.640625 -6.414062 7.515625 -6.875 C 7.398438 -7.332031 7.234375 -7.691406 7.015625 -7.953125 C 6.796875 -8.222656 6.53125 -8.410156 6.21875 -8.515625 C 5.914062 -8.628906 5.578125 -8.6875 5.203125 -8.6875 C 4.828125 -8.6875 4.488281 -8.628906 4.1875 -8.515625 C 3.882812 -8.410156 3.625 -8.222656 3.40625 -7.953125 C 3.1875 -7.691406 3.015625 -7.332031 2.890625 -6.875 C 2.773438 -6.414062 2.71875 -5.835938 2.71875 -5.140625 C 2.71875 -4.453125 2.773438 -3.878906 2.890625 -3.421875 C 3.015625 -2.960938 3.1875 -2.597656 3.40625 -2.328125 C 3.625 -2.054688 3.882812 -1.867188 4.1875 -1.765625 C 4.488281 -1.660156 4.828125 -1.609375 5.203125 -1.609375 Z M 5.203125 -1.609375 "/></g></g></g><g fill="#002f6d" fill-opacity="1"><g transform="translate(294.533638, 281.227731)"><g><path d="M 9.171875 -3.328125 C 9.171875 -2.691406 9.050781 -2.15625 8.8125 -1.71875 C 8.570312 -1.28125 8.257812 -0.921875 7.875 -0.640625 C 7.488281 -0.359375 7.046875 -0.15625 6.546875 -0.03125 C 6.046875 0.0820312 5.535156 0.140625 5.015625 0.140625 C 4.492188 0.140625 3.984375 0.078125 3.484375 -0.046875 C 2.992188 -0.171875 2.550781 -0.367188 2.15625 -0.640625 C 1.769531 -0.921875 1.457031 -1.28125 1.21875 -1.71875 C 0.988281 -2.15625 0.875 -2.691406 0.875 -3.328125 L 0.875 -10.296875 L 2.9375 -10.296875 L 2.9375 -3.328125 C 2.9375 -3.015625 2.992188 -2.742188 3.109375 -2.515625 C 3.234375 -2.296875 3.390625 -2.117188 3.578125 -1.984375 C 3.773438 -1.847656 3.992188 -1.75 4.234375 -1.6875 C 4.484375 -1.632812 4.742188 -1.609375 5.015625 -1.609375 C 5.273438 -1.609375 5.53125 -1.632812 5.78125 -1.6875 C 6.03125 -1.75 6.253906 -1.847656 6.453125 -1.984375 C 6.648438 -2.117188 6.804688 -2.296875 6.921875 -2.515625 C 7.046875 -2.742188 7.109375 -3.015625 7.109375 -3.328125 L 7.109375 -10.296875 L 9.171875 -10.296875 Z M 9.171875 -3.328125 "/></g></g></g><g fill="#002f6d" fill-opacity="1"><g transform="translate(307.011046, 281.227731)"><g><path d="M 6.953125 -2.21875 L 3.28125 -2.21875 L 2.484375 0 L 0.25 0 L 4.015625 -10.296875 L 6.21875 -10.296875 L 9.984375 0 L 7.75 0 Z M 3.9375 -3.96875 L 6.28125 -3.96875 L 5.109375 -7.296875 Z M 3.9375 -3.96875 "/></g></g></g><g fill="#002f6d" fill-opacity="1"><g transform="translate(319.679517, 281.227731)"><g><path d="M 2.9375 -1.75 L 7.125 -1.75 L 7.125 0 L 0.875 0 L 0.875 -10.296875 L 2.9375 -10.296875 Z M 2.9375 -1.75 "/></g></g></g><g fill="#002f6d" fill-opacity="1"><g transform="translate(329.820163, 281.227731)"><g><path d="M 4.890625 -8.546875 L 3.84375 -8.546875 L 3.84375 -1.75 L 4.890625 -1.75 L 4.890625 0 L 0.703125 0 L 0.703125 -1.75 L 1.765625 -1.75 L 1.765625 -8.546875 L 0.703125 -8.546875 L 0.703125 -10.296875 L 4.890625 -10.296875 Z M 4.890625 -8.546875 "/></g></g></g><g fill="#002f6d" fill-opacity="1"><g transform="translate(337.873893, 281.227731)"><g><path d="M 5.359375 -8.546875 L 5.359375 0 L 3.28125 0 L 3.28125 -8.546875 L 0.53125 -8.546875 L 0.53125 -10.296875 L 8.09375 -10.296875 L 8.09375 -8.546875 Z M 5.359375 -8.546875 "/></g></g></g><g fill="#002f6d" fill-opacity="1"><g transform="translate(348.955136, 281.227731)"><g><path d="M 2.59375 -10.296875 L 4.375 -6.890625 L 6.1875 -10.296875 L 8.53125 -10.296875 L 5.421875 -4.546875 L 5.421875 0 L 3.359375 0 L 3.359375 -4.546875 L 0.25 -10.296875 Z M 2.59375 -10.296875 "/></g></g></g></svg>