<svg xmlns="http://www.w3.org/2000/svg" xmlns:xlink="http://www.w3.org/1999/xlink" width="485" zoomAndPan="magnify" viewBox="0 0 363.75 202.499994" height="270" preserveAspectRatio="xMidYMid meet" version="1.0"><defs><g/><clipPath id="d0276ccdb4"><path d="M 0.324219 0 L 245.882812 0 L 245.882812 169.511719 L 0.324219 169.511719 Z M 0.324219 0 " clip-rule="nonzero"/></clipPath><clipPath id="5da549c9d1"><path d="M 67.019531 32.753906 L 114.664062 32.753906 L 114.664062 79.484375 L 67.019531 79.484375 Z M 67.019531 32.753906 " clip-rule="nonzero"/></clipPath><clipPath id="41af116cb5"><path d="M 111.988281 114.214844 L 347.46875 114.214844 L 347.46875 169.191406 L 111.988281 169.191406 Z M 111.988281 114.214844 " clip-rule="nonzero"/></clipPath></defs><g clip-path="url(#d0276ccdb4)"><path fill="#ff9202" d="M 530.167969 160.039062 C 532.804688 160.039062 534.941406 162.179688 534.941406 164.816406 C 534.941406 167.453125 532.804688 169.589844 530.167969 169.589844 L 39.925781 169.589844 C 35.203125 169.589844 30.910156 167.660156 27.804688 164.554688 C 24.699219 161.445312 22.769531 157.15625 22.769531 152.433594 L 22.769531 92.125 L 14.265625 92.125 C 10.941406 92.125 8.207031 91.253906 6.070312 89.808594 C 3.707031 88.210938 2.140625 85.953125 1.355469 83.382812 L 1.347656 83.386719 C 0.621094 81.003906 0.59375 78.375 1.25 75.828125 C 2.03125 72.789062 3.785156 69.824219 6.449219 67.527344 L 79.542969 4.519531 C 83.042969 1.507812 87.578125 0 92.066406 0 C 96.554688 0 101.089844 1.507812 104.585938 4.519531 L 153.707031 47.007812 C 155.695312 48.726562 155.914062 51.734375 154.195312 53.71875 C 152.476562 55.707031 149.46875 55.925781 147.480469 54.207031 L 98.359375 11.71875 C 96.679688 10.273438 94.394531 9.550781 92.066406 9.550781 C 89.738281 9.550781 87.449219 10.273438 85.769531 11.71875 L 12.675781 74.730469 C 11.527344 75.722656 10.78125 76.949219 10.464844 78.179688 C 10.246094 79.039062 10.238281 79.878906 10.453125 80.585938 L 10.445312 80.589844 L 10.453125 80.605469 C 10.609375 81.117188 10.925781 81.574219 11.40625 81.898438 C 12.027344 82.320312 12.96875 82.574219 14.265625 82.574219 L 27.542969 82.574219 C 30.179688 82.574219 32.320312 84.710938 32.320312 87.351562 L 32.320312 152.433594 C 32.320312 154.519531 33.179688 156.425781 34.554688 157.804688 C 35.933594 159.183594 37.835938 160.039062 39.925781 160.039062 Z M 530.167969 160.039062 " fill-opacity="1" fill-rule="nonzero"/></g><g clip-path="url(#5da549c9d1)"><path fill="#ff9202" d="M 73.007812 32.753906 L 72.410156 33.949219 L 78.6875 37.535156 C 78.6875 40.523438 77.492188 42.914062 74.800781 44.410156 L 68.523438 40.824219 L 68.226562 41.421875 C 69.71875 45.90625 72.707031 48.894531 78.6875 48.894531 C 80.179688 48.894531 84.664062 53.378906 87.054688 55.769531 L 91.839844 50.984375 C 89.449219 48.59375 84.066406 43.214844 84.066406 41.71875 C 84.066406 36.339844 82.574219 32.753906 73.007812 32.753906 Z M 110.371094 34.246094 L 104.394531 38.433594 L 103.796875 40.824219 L 86.457031 58.160156 L 84.066406 56.664062 L 82.871094 57.859375 C 82.871094 61.449219 78.6875 63.242188 76.894531 63.242188 L 67.03125 73.105469 C 67.03125 76.09375 70.316406 79.382812 73.304688 79.382812 L 83.171875 69.519531 C 83.171875 67.726562 84.964844 63.539062 88.550781 63.539062 L 89.746094 62.34375 L 88.253906 59.953125 L 105.589844 42.617188 L 107.980469 42.019531 L 112.164062 36.039062 Z M 95.425781 54.574219 L 90.644531 59.355469 C 94.230469 62.941406 99.011719 67.726562 99.011719 69.21875 C 99.011719 74.601562 100.507812 78.1875 110.074219 78.1875 L 110.671875 76.992188 L 104.394531 73.40625 C 104.394531 70.414062 105.589844 68.023438 108.277344 66.53125 L 114.554688 70.117188 L 114.855469 69.519531 C 113.359375 65.035156 110.371094 62.046875 104.394531 62.046875 C 102.898438 62.046875 99.011719 58.160156 95.425781 54.574219 Z M 95.425781 54.574219 " fill-opacity="1" fill-rule="nonzero"/></g><g fill="#002f6d" fill-opacity="1"><g transform="translate(55.959298, 136.279497)"><g><path d="M 28.859375 -9.96875 L 31.59375 -2.203125 C 30.457031 -1.265625 29.03125 -0.53125 27.3125 0 C 25.59375 0.53125 23.644531 0.796875 21.46875 0.796875 C 16.9375 0.796875 13.492188 -0.429688 11.140625 -2.890625 C 8.796875 -5.359375 7.625 -8.945312 7.625 -13.65625 L 7.625 -33.53125 L 1.25 -33.53125 L 1.25 -41.875 L 7.625 -41.875 L 7.625 -50.03125 L 18.125 -51.734375 L 18.125 -41.875 L 30 -41.875 L 30 -33.53125 L 18.125 -33.53125 L 18.125 -14.40625 C 18.125 -12.332031 18.550781 -10.820312 19.40625 -9.875 C 20.269531 -8.925781 21.523438 -8.453125 23.171875 -8.453125 C 25.046875 -8.453125 26.675781 -8.957031 28.0625 -9.96875 Z M 28.859375 -9.96875 "/></g></g></g><g fill="#002f6d" fill-opacity="1"><g transform="translate(84.812286, 136.279497)"><g><path d="M 16.3125 0.796875 C 13.625 0.796875 11.296875 0.304688 9.328125 -0.671875 C 7.359375 -1.660156 5.84375 -3.109375 4.78125 -5.015625 C 3.71875 -6.929688 3.1875 -9.226562 3.1875 -11.90625 C 3.1875 -14.382812 3.71875 -16.460938 4.78125 -18.140625 C 5.84375 -19.828125 7.484375 -21.207031 9.703125 -22.28125 C 11.929688 -23.351562 14.84375 -24.179688 18.4375 -24.765625 C 20.9375 -25.171875 22.835938 -25.613281 24.140625 -26.09375 C 25.441406 -26.570312 26.316406 -27.113281 26.765625 -27.71875 C 27.222656 -28.332031 27.453125 -29.101562 27.453125 -30.03125 C 27.453125 -31.375 26.984375 -32.398438 26.046875 -33.109375 C 25.117188 -33.816406 23.566406 -34.171875 21.390625 -34.171875 C 19.066406 -34.171875 16.851562 -33.648438 14.75 -32.609375 C 12.65625 -31.578125 10.835938 -30.210938 9.296875 -28.515625 L 8.53125 -28.515625 L 4.140625 -35.15625 C 6.253906 -37.507812 8.84375 -39.34375 11.90625 -40.65625 C 14.96875 -41.96875 18.304688 -42.625 21.921875 -42.625 C 27.460938 -42.625 31.46875 -41.445312 33.9375 -39.09375 C 36.414062 -36.75 37.65625 -33.414062 37.65625 -29.09375 L 37.65625 -10.921875 C 37.65625 -9.046875 38.476562 -8.109375 40.125 -8.109375 C 40.757812 -8.109375 41.378906 -8.222656 41.984375 -8.453125 L 42.515625 -8.3125 L 43.265625 -0.984375 C 42.691406 -0.609375 41.882812 -0.300781 40.84375 -0.0625 C 39.8125 0.175781 38.675781 0.296875 37.4375 0.296875 C 34.925781 0.296875 32.96875 -0.179688 31.5625 -1.140625 C 30.164062 -2.097656 29.164062 -3.601562 28.5625 -5.65625 L 27.765625 -5.734375 C 25.710938 -1.378906 21.894531 0.796875 16.3125 0.796875 Z M 19.640625 -7.046875 C 22.066406 -7.046875 24.003906 -7.863281 25.453125 -9.5 C 26.910156 -11.132812 27.640625 -13.40625 27.640625 -16.3125 L 27.640625 -20.5625 L 26.921875 -20.703125 C 26.296875 -20.203125 25.46875 -19.78125 24.4375 -19.4375 C 23.414062 -19.09375 21.945312 -18.757812 20.03125 -18.4375 C 17.75 -18.050781 16.109375 -17.394531 15.109375 -16.46875 C 14.109375 -15.550781 13.609375 -14.242188 13.609375 -12.546875 C 13.609375 -10.753906 14.140625 -9.390625 15.203125 -8.453125 C 16.265625 -7.515625 17.742188 -7.046875 19.640625 -7.046875 Z M 19.640625 -7.046875 "/></g></g></g><g fill="#002f6d" fill-opacity="1"><g transform="translate(125.271174, 136.279497)"><g><path d="M 17.375 0.796875 C 13.601562 0.796875 10.722656 -0.21875 8.734375 -2.25 C 6.753906 -4.289062 5.765625 -7.382812 5.765625 -11.53125 L 5.765625 -58.640625 L 16.265625 -58.640625 L 16.265625 -11.953125 C 16.265625 -9.390625 17.328125 -8.109375 19.453125 -8.109375 C 20.054688 -8.109375 20.703125 -8.210938 21.390625 -8.421875 L 21.921875 -8.265625 L 22.875 -0.1875 C 22.289062 0.113281 21.515625 0.351562 20.546875 0.53125 C 19.585938 0.707031 18.53125 0.796875 17.375 0.796875 Z M 17.375 0.796875 "/></g></g></g><g fill="#002f6d" fill-opacity="1"><g transform="translate(145.666257, 136.279497)"><g><path d="M 16.3125 0.796875 C 13.625 0.796875 11.296875 0.304688 9.328125 -0.671875 C 7.359375 -1.660156 5.84375 -3.109375 4.78125 -5.015625 C 3.71875 -6.929688 3.1875 -9.226562 3.1875 -11.90625 C 3.1875 -14.382812 3.71875 -16.460938 4.78125 -18.140625 C 5.84375 -19.828125 7.484375 -21.207031 9.703125 -22.28125 C 11.929688 -23.351562 14.84375 -24.179688 18.4375 -24.765625 C 20.9375 -25.171875 22.835938 -25.613281 24.140625 -26.09375 C 25.441406 -26.570312 26.316406 -27.113281 26.765625 -27.71875 C 27.222656 -28.332031 27.453125 -29.101562 27.453125 -30.03125 C 27.453125 -31.375 26.984375 -32.398438 26.046875 -33.109375 C 25.117188 -33.816406 23.566406 -34.171875 21.390625 -34.171875 C 19.066406 -34.171875 16.851562 -33.648438 14.75 -32.609375 C 12.65625 -31.578125 10.835938 -30.210938 9.296875 -28.515625 L 8.53125 -28.515625 L 4.140625 -35.15625 C 6.253906 -37.507812 8.84375 -39.34375 11.90625 -40.65625 C 14.96875 -41.96875 18.304688 -42.625 21.921875 -42.625 C 27.460938 -42.625 31.46875 -41.445312 33.9375 -39.09375 C 36.414062 -36.75 37.65625 -33.414062 37.65625 -29.09375 L 37.65625 -10.921875 C 37.65625 -9.046875 38.476562 -8.109375 40.125 -8.109375 C 40.757812 -8.109375 41.378906 -8.222656 41.984375 -8.453125 L 42.515625 -8.3125 L 43.265625 -0.984375 C 42.691406 -0.609375 41.882812 -0.300781 40.84375 -0.0625 C 39.8125 0.175781 38.675781 0.296875 37.4375 0.296875 C 34.925781 0.296875 32.96875 -0.179688 31.5625 -1.140625 C 30.164062 -2.097656 29.164062 -3.601562 28.5625 -5.65625 L 27.765625 -5.734375 C 25.710938 -1.378906 21.894531 0.796875 16.3125 0.796875 Z M 19.640625 -7.046875 C 22.066406 -7.046875 24.003906 -7.863281 25.453125 -9.5 C 26.910156 -11.132812 27.640625 -13.40625 27.640625 -16.3125 L 27.640625 -20.5625 L 26.921875 -20.703125 C 26.296875 -20.203125 25.46875 -19.78125 24.4375 -19.4375 C 23.414062 -19.09375 21.945312 -18.757812 20.03125 -18.4375 C 17.75 -18.050781 16.109375 -17.394531 15.109375 -16.46875 C 14.109375 -15.550781 13.609375 -14.242188 13.609375 -12.546875 C 13.609375 -10.753906 14.140625 -9.390625 15.203125 -8.453125 C 16.265625 -7.515625 17.742188 -7.046875 19.640625 -7.046875 Z M 19.640625 -7.046875 "/></g></g></g><g fill="#002f6d" fill-opacity="1"><g transform="translate(186.125145, 136.279497)"><g><path d="M 29.234375 0.796875 C 23.898438 0.796875 19.929688 -1.203125 17.328125 -5.203125 L 16.53125 -5.046875 L 16.53125 0 L 6.03125 0 L 6.03125 -58.640625 L 16.53125 -58.640625 L 16.53125 -36.90625 L 17.328125 -36.75 C 18.773438 -38.75 20.476562 -40.226562 22.4375 -41.1875 C 24.394531 -42.144531 26.738281 -42.625 29.46875 -42.625 C 32.851562 -42.625 35.8125 -41.828125 38.34375 -40.234375 C 40.875 -38.640625 42.847656 -36.21875 44.265625 -32.96875 C 45.679688 -29.726562 46.390625 -25.703125 46.390625 -20.890625 C 46.390625 -16.140625 45.65625 -12.140625 44.1875 -8.890625 C 42.71875 -5.640625 40.691406 -3.210938 38.109375 -1.609375 C 35.535156 -0.00390625 32.578125 0.796875 29.234375 0.796875 Z M 26.0625 -8.109375 C 29.144531 -8.109375 31.492188 -9.140625 33.109375 -11.203125 C 34.722656 -13.265625 35.53125 -16.492188 35.53125 -20.890625 C 35.53125 -25.316406 34.722656 -28.5625 33.109375 -30.625 C 31.492188 -32.6875 29.144531 -33.71875 26.0625 -33.71875 C 23.101562 -33.71875 20.753906 -32.65625 19.015625 -30.53125 C 17.285156 -28.40625 16.421875 -25.191406 16.421875 -20.890625 C 16.421875 -16.597656 17.285156 -13.394531 19.015625 -11.28125 C 20.753906 -9.164062 23.101562 -8.109375 26.0625 -8.109375 Z M 26.0625 -8.109375 "/></g></g></g><g fill="#002f6d" fill-opacity="1"><g transform="translate(232.576618, 136.279497)"><g><path d="M 16.3125 0.796875 C 13.625 0.796875 11.296875 0.304688 9.328125 -0.671875 C 7.359375 -1.660156 5.84375 -3.109375 4.78125 -5.015625 C 3.71875 -6.929688 3.1875 -9.226562 3.1875 -11.90625 C 3.1875 -14.382812 3.71875 -16.460938 4.78125 -18.140625 C 5.84375 -19.828125 7.484375 -21.207031 9.703125 -22.28125 C 11.929688 -23.351562 14.84375 -24.179688 18.4375 -24.765625 C 20.9375 -25.171875 22.835938 -25.613281 24.140625 -26.09375 C 25.441406 -26.570312 26.316406 -27.113281 26.765625 -27.71875 C 27.222656 -28.332031 27.453125 -29.101562 27.453125 -30.03125 C 27.453125 -31.375 26.984375 -32.398438 26.046875 -33.109375 C 25.117188 -33.816406 23.566406 -34.171875 21.390625 -34.171875 C 19.066406 -34.171875 16.851562 -33.648438 14.75 -32.609375 C 12.65625 -31.578125 10.835938 -30.210938 9.296875 -28.515625 L 8.53125 -28.515625 L 4.140625 -35.15625 C 6.253906 -37.507812 8.84375 -39.34375 11.90625 -40.65625 C 14.96875 -41.96875 18.304688 -42.625 21.921875 -42.625 C 27.460938 -42.625 31.46875 -41.445312 33.9375 -39.09375 C 36.414062 -36.75 37.65625 -33.414062 37.65625 -29.09375 L 37.65625 -10.921875 C 37.65625 -9.046875 38.476562 -8.109375 40.125 -8.109375 C 40.757812 -8.109375 41.378906 -8.222656 41.984375 -8.453125 L 42.515625 -8.3125 L 43.265625 -0.984375 C 42.691406 -0.609375 41.882812 -0.300781 40.84375 -0.0625 C 39.8125 0.175781 38.675781 0.296875 37.4375 0.296875 C 34.925781 0.296875 32.96875 -0.179688 31.5625 -1.140625 C 30.164062 -2.097656 29.164062 -3.601562 28.5625 -5.65625 L 27.765625 -5.734375 C 25.710938 -1.378906 21.894531 0.796875 16.3125 0.796875 Z M 19.640625 -7.046875 C 22.066406 -7.046875 24.003906 -7.863281 25.453125 -9.5 C 26.910156 -11.132812 27.640625 -13.40625 27.640625 -16.3125 L 27.640625 -20.5625 L 26.921875 -20.703125 C 26.296875 -20.203125 25.46875 -19.78125 24.4375 -19.4375 C 23.414062 -19.09375 21.945312 -18.757812 20.03125 -18.4375 C 17.75 -18.050781 16.109375 -17.394531 15.109375 -16.46875 C 14.109375 -15.550781 13.609375 -14.242188 13.609375 -12.546875 C 13.609375 -10.753906 14.140625 -9.390625 15.203125 -8.453125 C 16.265625 -7.515625 17.742188 -7.046875 19.640625 -7.046875 Z M 19.640625 -7.046875 "/></g></g></g><g fill="#002f6d" fill-opacity="1"><g transform="translate(273.0355, 136.279497)"><g><path d="M 9.25 17.75 C 7.457031 17.75 5.832031 17.609375 4.375 17.328125 C 2.925781 17.054688 1.742188 16.691406 0.828125 16.234375 L 2.5 7.734375 L 3.1875 7.515625 C 3.820312 7.835938 4.601562 8.097656 5.53125 8.296875 C 6.46875 8.503906 7.429688 8.609375 8.421875 8.609375 C 10.109375 8.609375 11.515625 8.382812 12.640625 7.9375 C 13.765625 7.5 14.71875 6.765625 15.5 5.734375 C 16.289062 4.710938 16.988281 3.296875 17.59375 1.484375 L 0.90625 -41.828125 L 11.90625 -41.828125 L 22.296875 -12.75 L 23.203125 -12.75 L 33.34375 -41.828125 L 44.03125 -41.828125 L 27.234375 2.609375 C 25.890625 6.203125 24.414062 9.09375 22.8125 11.28125 C 21.207031 13.46875 19.3125 15.09375 17.125 16.15625 C 14.9375 17.21875 12.3125 17.75 9.25 17.75 Z M 9.25 17.75 "/></g></g></g><g fill="#002f6d" fill-opacity="1"><g transform="translate(314.290855, 136.279497)"><g><path d="M 28.859375 -9.96875 L 31.59375 -2.203125 C 30.457031 -1.265625 29.03125 -0.53125 27.3125 0 C 25.59375 0.53125 23.644531 0.796875 21.46875 0.796875 C 16.9375 0.796875 13.492188 -0.429688 11.140625 -2.890625 C 8.796875 -5.359375 7.625 -8.945312 7.625 -13.65625 L 7.625 -33.53125 L 1.25 -33.53125 L 1.25 -41.875 L 7.625 -41.875 L 7.625 -50.03125 L 18.125 -51.734375 L 18.125 -41.875 L 30 -41.875 L 30 -33.53125 L 18.125 -33.53125 L 18.125 -14.40625 C 18.125 -12.332031 18.550781 -10.820312 19.40625 -9.875 C 20.269531 -8.925781 21.523438 -8.453125 23.171875 -8.453125 C 25.046875 -8.453125 26.675781 -8.957031 28.0625 -9.96875 Z M 28.859375 -9.96875 "/></g></g></g><g clip-path="url(#41af116cb5)"><path fill="#ff9202" d="M 600.394531 160.039062 C 603.03125 160.039062 605.167969 162.179688 605.167969 164.816406 C 605.167969 167.453125 603.03125 169.589844 600.394531 169.589844 L 110.152344 169.589844 C 105.433594 169.589844 101.136719 167.660156 98.03125 164.554688 C 94.929688 161.445312 92.996094 157.15625 92.996094 152.433594 L 92.996094 92.125 L 84.492188 92.125 C 81.167969 92.125 78.433594 91.253906 76.296875 89.808594 C 73.933594 88.210938 72.367188 85.953125 71.582031 83.382812 L 71.574219 83.386719 C 70.847656 81.003906 70.824219 78.375 71.480469 75.828125 C 72.257812 72.789062 74.011719 69.824219 76.675781 67.527344 L 149.769531 4.519531 C 153.269531 1.507812 157.804688 0 162.292969 0 C 166.78125 0 171.316406 1.507812 174.8125 4.519531 L 223.933594 47.007812 C 225.925781 48.726562 226.140625 51.734375 224.421875 53.71875 C 222.703125 55.707031 219.695312 55.925781 217.707031 54.207031 L 168.585938 11.71875 C 166.90625 10.273438 164.621094 9.550781 162.292969 9.550781 C 159.964844 9.550781 157.675781 10.273438 155.996094 11.71875 L 82.902344 74.730469 C 81.753906 75.722656 81.007812 76.949219 80.691406 78.179688 C 80.472656 79.039062 80.464844 79.878906 80.679688 80.585938 L 80.671875 80.589844 L 80.679688 80.605469 C 80.835938 81.117188 81.152344 81.574219 81.632812 81.898438 C 82.253906 82.320312 83.199219 82.574219 84.492188 82.574219 L 97.773438 82.574219 C 100.40625 82.574219 102.546875 84.710938 102.546875 87.351562 L 102.546875 152.433594 C 102.546875 154.519531 103.40625 156.425781 104.785156 157.804688 C 106.164062 159.183594 108.0625 160.039062 110.152344 160.039062 Z M 600.394531 160.039062 " fill-opacity="1" fill-rule="nonzero"/></g><g fill="#002f6d" fill-opacity="1"><g transform="translate(25.184949, 191.941633)"><g><path d="M 8.515625 -10.265625 L 10.46875 -3.9375 L 12.40625 -10.265625 L 14.5625 -10.265625 L 11.40625 0 L 9.53125 0 L 7.40625 -6.859375 L 5.296875 0 L 3.421875 0 L 0.25 -10.265625 L 2.40625 -10.265625 L 4.359375 -3.9375 L 6.296875 -10.265625 Z M 8.515625 -10.265625 "/></g></g></g><g fill="#002f6d" fill-opacity="1"><g transform="translate(42.440239, 191.941633)"><g><path d="M 2.9375 -5.859375 L 6.9375 -5.859375 L 6.9375 -10.265625 L 9 -10.265625 L 9 0 L 6.9375 0 L 6.9375 -4.125 L 2.9375 -4.125 L 2.9375 0 L 0.859375 0 L 0.859375 -10.265625 L 2.9375 -10.265625 Z M 2.9375 -5.859375 "/></g></g></g><g fill="#002f6d" fill-opacity="1"><g transform="translate(54.740316, 191.941633)"><g><path d="M 2.9375 -4.265625 L 2.9375 -1.75 L 7.6875 -1.75 L 7.6875 0 L 0.859375 0 L 0.859375 -10.265625 L 7.53125 -10.265625 L 7.53125 -8.515625 L 2.9375 -8.515625 L 2.9375 -6.015625 L 7.3125 -6.015625 L 7.3125 -4.265625 Z M 2.9375 -4.265625 "/></g></g></g><g fill="#002f6d" fill-opacity="1"><g transform="translate(65.442411, 191.941633)"><g><path d="M 7.859375 -7.34375 C 7.859375 -6.507812 7.675781 -5.84375 7.3125 -5.34375 C 6.957031 -4.851562 6.4375 -4.519531 5.75 -4.34375 L 8.28125 0 L 5.921875 0 L 3.484375 -4.171875 L 2.9375 -4.171875 L 2.9375 0 L 0.859375 0 L 0.859375 -10.265625 L 4.359375 -10.265625 C 5.503906 -10.265625 6.375 -10.003906 6.96875 -9.484375 C 7.5625 -8.972656 7.859375 -8.257812 7.859375 -7.34375 Z M 2.9375 -8.515625 L 2.9375 -5.921875 L 4.359375 -5.921875 C 4.835938 -5.921875 5.195312 -6.015625 5.4375 -6.203125 C 5.675781 -6.398438 5.796875 -6.757812 5.796875 -7.28125 C 5.796875 -7.65625 5.675781 -7.953125 5.4375 -8.171875 C 5.195312 -8.398438 4.835938 -8.515625 4.359375 -8.515625 Z M 2.9375 -8.515625 "/></g></g></g><g fill="#002f6d" fill-opacity="1"><g transform="translate(76.42305, 191.941633)"><g><path d="M 2.9375 -4.265625 L 2.9375 -1.75 L 7.6875 -1.75 L 7.6875 0 L 0.859375 0 L 0.859375 -10.265625 L 7.53125 -10.265625 L 7.53125 -8.515625 L 2.9375 -8.515625 L 2.9375 -6.015625 L 7.3125 -6.015625 L 7.3125 -4.265625 Z M 2.9375 -4.265625 "/></g></g></g><g fill="#002f6d" fill-opacity="1"><g transform="translate(87.125141, 191.941633)"><g/></g></g><g fill="#002f6d" fill-opacity="1"><g transform="translate(94.103486, 191.941633)"><g><path d="M 2.9375 -5.859375 L 6.9375 -5.859375 L 6.9375 -10.265625 L 9 -10.265625 L 9 0 L 6.9375 0 L 6.9375 -4.125 L 2.9375 -4.125 L 2.9375 0 L 0.859375 0 L 0.859375 -10.265625 L 2.9375 -10.265625 Z M 2.9375 -5.859375 "/></g></g></g><g fill="#002f6d" fill-opacity="1"><g transform="translate(106.403561, 191.941633)"><g><path d="M 5.1875 0.140625 C 4.5 0.140625 3.875 0.0546875 3.3125 -0.109375 C 2.757812 -0.273438 2.285156 -0.5625 1.890625 -0.96875 C 1.492188 -1.382812 1.1875 -1.929688 0.96875 -2.609375 C 0.75 -3.285156 0.640625 -4.125 0.640625 -5.125 C 0.640625 -6.132812 0.75 -6.972656 0.96875 -7.640625 C 1.1875 -8.316406 1.492188 -8.859375 1.890625 -9.265625 C 2.285156 -9.679688 2.757812 -9.972656 3.3125 -10.140625 C 3.875 -10.316406 4.5 -10.40625 5.1875 -10.40625 C 5.875 -10.40625 6.5 -10.316406 7.0625 -10.140625 C 7.625 -9.972656 8.101562 -9.679688 8.5 -9.265625 C 8.894531 -8.859375 9.203125 -8.316406 9.421875 -7.640625 C 9.640625 -6.972656 9.75 -6.132812 9.75 -5.125 C 9.75 -4.125 9.640625 -3.285156 9.421875 -2.609375 C 9.203125 -1.929688 8.894531 -1.382812 8.5 -0.96875 C 8.101562 -0.5625 7.625 -0.273438 7.0625 -0.109375 C 6.5 0.0546875 5.875 0.140625 5.1875 0.140625 Z M 5.1875 -1.59375 C 5.5625 -1.59375 5.898438 -1.644531 6.203125 -1.75 C 6.515625 -1.863281 6.78125 -2.050781 7 -2.3125 C 7.21875 -2.582031 7.382812 -2.945312 7.5 -3.40625 C 7.625 -3.863281 7.6875 -4.4375 7.6875 -5.125 C 7.6875 -5.820312 7.625 -6.394531 7.5 -6.84375 C 7.382812 -7.300781 7.21875 -7.664062 7 -7.9375 C 6.78125 -8.207031 6.515625 -8.394531 6.203125 -8.5 C 5.898438 -8.601562 5.5625 -8.65625 5.1875 -8.65625 C 4.8125 -8.65625 4.472656 -8.601562 4.171875 -8.5 C 3.867188 -8.394531 3.609375 -8.207031 3.390625 -7.9375 C 3.171875 -7.664062 3.003906 -7.300781 2.890625 -6.84375 C 2.773438 -6.394531 2.71875 -5.820312 2.71875 -5.125 C 2.71875 -4.4375 2.773438 -3.863281 2.890625 -3.40625 C 3.003906 -2.945312 3.171875 -2.582031 3.390625 -2.3125 C 3.609375 -2.050781 3.867188 -1.863281 4.171875 -1.75 C 4.472656 -1.644531 4.8125 -1.59375 5.1875 -1.59375 Z M 5.1875 -1.59375 "/></g></g></g><g fill="#002f6d" fill-opacity="1"><g transform="translate(119.231414, 191.941633)"><g><path d="M 3.40625 -10.265625 L 5.96875 -3.46875 L 8.53125 -10.265625 L 10.6875 -10.265625 L 11.234375 0 L 9.15625 0 L 8.875 -5.40625 L 6.8125 0 L 5.125 0 L 3.0625 -5.40625 L 2.78125 0 L 0.71875 0 L 1.265625 -10.265625 Z M 3.40625 -10.265625 "/></g></g></g><g fill="#002f6d" fill-opacity="1"><g transform="translate(133.613266, 191.941633)"><g><path d="M 2.9375 -4.265625 L 2.9375 -1.75 L 7.6875 -1.75 L 7.6875 0 L 0.859375 0 L 0.859375 -10.265625 L 7.53125 -10.265625 L 7.53125 -8.515625 L 2.9375 -8.515625 L 2.9375 -6.015625 L 7.3125 -6.015625 L 7.3125 -4.265625 Z M 2.9375 -4.265625 "/></g></g></g><g fill="#002f6d" fill-opacity="1"><g transform="translate(144.315363, 191.941633)"><g/></g></g><g fill="#002f6d" fill-opacity="1"><g transform="translate(151.293715, 191.941633)"><g><path d="M 9.515625 -3.078125 C 9.359375 -2.492188 9.132812 -1.992188 8.84375 -1.578125 C 8.5625 -1.171875 8.226562 -0.835938 7.84375 -0.578125 C 7.46875 -0.316406 7.054688 -0.128906 6.609375 -0.015625 C 6.160156 0.0859375 5.6875 0.140625 5.1875 0.140625 C 4.5625 0.140625 3.972656 0.0546875 3.421875 -0.109375 C 2.867188 -0.273438 2.382812 -0.5625 1.96875 -0.96875 C 1.5625 -1.375 1.238281 -1.914062 1 -2.59375 C 0.757812 -3.269531 0.640625 -4.109375 0.640625 -5.109375 C 0.640625 -6.117188 0.757812 -6.957031 1 -7.625 C 1.238281 -8.300781 1.5625 -8.84375 1.96875 -9.25 C 2.382812 -9.664062 2.867188 -9.960938 3.421875 -10.140625 C 3.972656 -10.316406 4.5625 -10.40625 5.1875 -10.40625 C 5.664062 -10.40625 6.125 -10.347656 6.5625 -10.234375 C 7 -10.128906 7.398438 -9.957031 7.765625 -9.71875 C 8.140625 -9.488281 8.46875 -9.1875 8.75 -8.8125 C 9.03125 -8.445312 9.257812 -7.992188 9.4375 -7.453125 L 7.484375 -6.828125 C 7.398438 -7.179688 7.28125 -7.472656 7.125 -7.703125 C 6.96875 -7.941406 6.785156 -8.128906 6.578125 -8.265625 C 6.367188 -8.410156 6.144531 -8.507812 5.90625 -8.5625 C 5.675781 -8.625 5.4375 -8.65625 5.1875 -8.65625 C 4.84375 -8.65625 4.519531 -8.601562 4.21875 -8.5 C 3.925781 -8.394531 3.664062 -8.207031 3.4375 -7.9375 C 3.21875 -7.664062 3.039062 -7.300781 2.90625 -6.84375 C 2.78125 -6.382812 2.71875 -5.804688 2.71875 -5.109375 C 2.71875 -4.421875 2.78125 -3.847656 2.90625 -3.390625 C 3.039062 -2.941406 3.21875 -2.582031 3.4375 -2.3125 C 3.664062 -2.050781 3.925781 -1.863281 4.21875 -1.75 C 4.519531 -1.644531 4.84375 -1.59375 5.1875 -1.59375 C 5.4375 -1.59375 5.679688 -1.625 5.921875 -1.6875 C 6.171875 -1.757812 6.398438 -1.875 6.609375 -2.03125 C 6.816406 -2.195312 7 -2.410156 7.15625 -2.671875 C 7.3125 -2.929688 7.429688 -3.253906 7.515625 -3.640625 Z M 9.515625 -3.078125 "/></g></g></g><g fill="#002f6d" fill-opacity="1"><g transform="translate(163.740405, 191.941633)"><g><path d="M 6.9375 -2.21875 L 3.265625 -2.21875 L 2.484375 0 L 0.25 0 L 4 -10.265625 L 6.203125 -10.265625 L 9.953125 0 L 7.71875 0 Z M 3.921875 -3.953125 L 6.265625 -3.953125 L 5.078125 -7.265625 Z M 3.921875 -3.953125 "/></g></g></g><g fill="#002f6d" fill-opacity="1"><g transform="translate(176.377672, 191.941633)"><g><path d="M 7.859375 -7.34375 C 7.859375 -6.507812 7.675781 -5.84375 7.3125 -5.34375 C 6.957031 -4.851562 6.4375 -4.519531 5.75 -4.34375 L 8.28125 0 L 5.921875 0 L 3.484375 -4.171875 L 2.9375 -4.171875 L 2.9375 0 L 0.859375 0 L 0.859375 -10.265625 L 4.359375 -10.265625 C 5.503906 -10.265625 6.375 -10.003906 6.96875 -9.484375 C 7.5625 -8.972656 7.859375 -8.257812 7.859375 -7.34375 Z M 2.9375 -8.515625 L 2.9375 -5.921875 L 4.359375 -5.921875 C 4.835938 -5.921875 5.195312 -6.015625 5.4375 -6.203125 C 5.675781 -6.398438 5.796875 -6.757812 5.796875 -7.28125 C 5.796875 -7.65625 5.675781 -7.953125 5.4375 -8.171875 C 5.195312 -8.398438 4.835938 -8.515625 4.359375 -8.515625 Z M 2.9375 -8.515625 "/></g></g></g><g fill="#002f6d" fill-opacity="1"><g transform="translate(187.358318, 191.941633)"><g><path d="M 2.9375 -4.265625 L 2.9375 -1.75 L 7.6875 -1.75 L 7.6875 0 L 0.859375 0 L 0.859375 -10.265625 L 7.53125 -10.265625 L 7.53125 -8.515625 L 2.9375 -8.515625 L 2.9375 -6.015625 L 7.3125 -6.015625 L 7.3125 -4.265625 Z M 2.9375 -4.265625 "/></g></g></g><g fill="#002f6d" fill-opacity="1"><g transform="translate(198.060416, 191.941633)"><g/></g></g><g fill="#002f6d" fill-opacity="1"><g transform="translate(205.038768, 191.941633)"><g><path d="M 3.40625 -10.265625 L 5.96875 -3.46875 L 8.53125 -10.265625 L 10.6875 -10.265625 L 11.234375 0 L 9.15625 0 L 8.875 -5.40625 L 6.8125 0 L 5.125 0 L 3.0625 -5.40625 L 2.78125 0 L 0.71875 0 L 1.265625 -10.265625 Z M 3.40625 -10.265625 "/></g></g></g><g fill="#002f6d" fill-opacity="1"><g transform="translate(219.420627, 191.941633)"><g><path d="M 2.9375 -4.265625 L 2.9375 -1.75 L 7.6875 -1.75 L 7.6875 0 L 0.859375 0 L 0.859375 -10.265625 L 7.53125 -10.265625 L 7.53125 -8.515625 L 2.9375 -8.515625 L 2.9375 -6.015625 L 7.3125 -6.015625 L 7.3125 -4.265625 Z M 2.9375 -4.265625 "/></g></g></g><g fill="#002f6d" fill-opacity="1"><g transform="translate(230.122725, 191.941633)"><g><path d="M 2.9375 -4.265625 L 2.9375 -1.75 L 7.6875 -1.75 L 7.6875 0 L 0.859375 0 L 0.859375 -10.265625 L 7.53125 -10.265625 L 7.53125 -8.515625 L 2.9375 -8.515625 L 2.9375 -6.015625 L 7.3125 -6.015625 L 7.3125 -4.265625 Z M 2.9375 -4.265625 "/></g></g></g><g fill="#002f6d" fill-opacity="1"><g transform="translate(240.824823, 191.941633)"><g><path d="M 5.328125 -8.515625 L 5.328125 0 L 3.265625 0 L 3.265625 -8.515625 L 0.53125 -8.515625 L 0.53125 -10.265625 L 8.078125 -10.265625 L 8.078125 -8.515625 Z M 5.328125 -8.515625 "/></g></g></g><g fill="#002f6d" fill-opacity="1"><g transform="translate(251.878773, 191.941633)"><g><path d="M 8.203125 -2.984375 C 8.203125 -2.390625 8.101562 -1.890625 7.90625 -1.484375 C 7.707031 -1.085938 7.429688 -0.765625 7.078125 -0.515625 C 6.722656 -0.273438 6.3125 -0.101562 5.84375 0 C 5.375 0.09375 4.878906 0.140625 4.359375 0.140625 C 3.617188 0.140625 2.925781 0.046875 2.28125 -0.140625 C 1.632812 -0.328125 1.066406 -0.5625 0.578125 -0.84375 L 1.375 -2.5 C 1.644531 -2.332031 1.894531 -2.1875 2.125 -2.0625 C 2.363281 -1.945312 2.597656 -1.851562 2.828125 -1.78125 C 3.054688 -1.71875 3.289062 -1.671875 3.53125 -1.640625 C 3.78125 -1.609375 4.050781 -1.59375 4.34375 -1.59375 C 4.863281 -1.59375 5.289062 -1.691406 5.625 -1.890625 C 5.96875 -2.085938 6.140625 -2.4375 6.140625 -2.9375 C 6.140625 -3.207031 6.0625 -3.421875 5.90625 -3.578125 C 5.757812 -3.742188 5.5625 -3.878906 5.3125 -3.984375 C 5.0625 -4.085938 4.773438 -4.171875 4.453125 -4.234375 C 4.140625 -4.304688 3.816406 -4.382812 3.484375 -4.46875 C 3.148438 -4.5625 2.820312 -4.675781 2.5 -4.8125 C 2.1875 -4.945312 1.90625 -5.132812 1.65625 -5.375 C 1.414062 -5.613281 1.21875 -5.914062 1.0625 -6.28125 C 0.90625 -6.644531 0.828125 -7.101562 0.828125 -7.65625 C 0.828125 -8.125 0.921875 -8.53125 1.109375 -8.875 C 1.296875 -9.21875 1.550781 -9.503906 1.875 -9.734375 C 2.195312 -9.960938 2.578125 -10.128906 3.015625 -10.234375 C 3.453125 -10.347656 3.914062 -10.40625 4.40625 -10.40625 C 5.144531 -10.40625 5.804688 -10.328125 6.390625 -10.171875 C 6.972656 -10.015625 7.5 -9.820312 7.96875 -9.59375 L 7.28125 -7.953125 C 6.925781 -8.140625 6.507812 -8.300781 6.03125 -8.4375 C 5.550781 -8.582031 5.007812 -8.65625 4.40625 -8.65625 C 3.976562 -8.65625 3.617188 -8.570312 3.328125 -8.40625 C 3.046875 -8.238281 2.90625 -7.988281 2.90625 -7.65625 C 2.90625 -7.238281 3.035156 -6.929688 3.296875 -6.734375 C 3.554688 -6.535156 3.878906 -6.378906 4.265625 -6.265625 C 4.660156 -6.160156 5.085938 -6.0625 5.546875 -5.96875 C 6.015625 -5.875 6.441406 -5.722656 6.828125 -5.515625 C 7.222656 -5.316406 7.550781 -5.019531 7.8125 -4.625 C 8.070312 -4.238281 8.203125 -3.691406 8.203125 -2.984375 Z M 8.203125 -2.984375 "/></g></g></g><g fill="#002f6d" fill-opacity="1"><g transform="translate(263.152619, 191.941633)"><g/></g></g><g fill="#002f6d" fill-opacity="1"><g transform="translate(270.130957, 191.941633)"><g><path d="M 9.015625 1.765625 C 8.472656 1.765625 7.992188 1.734375 7.578125 1.671875 C 7.160156 1.617188 6.773438 1.53125 6.421875 1.40625 C 6.078125 1.289062 5.753906 1.125 5.453125 0.90625 C 5.160156 0.695312 4.875 0.4375 4.59375 0.125 C 3.988281 0.0820312 3.445312 -0.0390625 2.96875 -0.25 C 2.488281 -0.457031 2.070312 -0.765625 1.71875 -1.171875 C 1.375 -1.578125 1.109375 -2.101562 0.921875 -2.75 C 0.734375 -3.40625 0.640625 -4.195312 0.640625 -5.125 C 0.640625 -6.132812 0.75 -6.972656 0.96875 -7.640625 C 1.1875 -8.316406 1.492188 -8.859375 1.890625 -9.265625 C 2.285156 -9.679688 2.757812 -9.972656 3.3125 -10.140625 C 3.875 -10.316406 4.5 -10.40625 5.1875 -10.40625 C 5.875 -10.40625 6.5 -10.316406 7.0625 -10.140625 C 7.625 -9.972656 8.101562 -9.679688 8.5 -9.265625 C 8.894531 -8.859375 9.203125 -8.316406 9.421875 -7.640625 C 9.640625 -6.972656 9.75 -6.132812 9.75 -5.125 C 9.75 -3.726562 9.535156 -2.644531 9.109375 -1.875 C 8.691406 -1.101562 8.125 -0.5625 7.40625 -0.25 C 7.71875 -0.125 8.050781 -0.046875 8.40625 -0.015625 C 8.757812 0.00390625 9.1875 0.015625 9.6875 0.015625 Z M 5.1875 -1.59375 C 5.5625 -1.59375 5.898438 -1.644531 6.203125 -1.75 C 6.515625 -1.863281 6.78125 -2.050781 7 -2.3125 C 7.21875 -2.582031 7.382812 -2.945312 7.5 -3.40625 C 7.625 -3.863281 7.6875 -4.4375 7.6875 -5.125 C 7.6875 -5.820312 7.625 -6.394531 7.5 -6.84375 C 7.382812 -7.300781 7.21875 -7.664062 7 -7.9375 C 6.78125 -8.207031 6.515625 -8.394531 6.203125 -8.5 C 5.898438 -8.601562 5.5625 -8.65625 5.1875 -8.65625 C 4.8125 -8.65625 4.472656 -8.601562 4.171875 -8.5 C 3.867188 -8.394531 3.609375 -8.207031 3.390625 -7.9375 C 3.171875 -7.664062 3.003906 -7.300781 2.890625 -6.84375 C 2.773438 -6.394531 2.71875 -5.820312 2.71875 -5.125 C 2.71875 -4.4375 2.773438 -3.863281 2.890625 -3.40625 C 3.003906 -2.945312 3.171875 -2.582031 3.390625 -2.3125 C 3.609375 -2.050781 3.867188 -1.863281 4.171875 -1.75 C 4.472656 -1.644531 4.8125 -1.59375 5.1875 -1.59375 Z M 5.1875 -1.59375 "/></g></g></g><g fill="#002f6d" fill-opacity="1"><g transform="translate(282.958817, 191.941633)"><g><path d="M 9.140625 -3.3125 C 9.140625 -2.6875 9.019531 -2.15625 8.78125 -1.71875 C 8.539062 -1.28125 8.226562 -0.921875 7.84375 -0.640625 C 7.457031 -0.359375 7.015625 -0.15625 6.515625 -0.03125 C 6.023438 0.0820312 5.519531 0.140625 5 0.140625 C 4.476562 0.140625 3.96875 0.078125 3.46875 -0.046875 C 2.976562 -0.171875 2.535156 -0.367188 2.140625 -0.640625 C 1.753906 -0.921875 1.441406 -1.28125 1.203125 -1.71875 C 0.972656 -2.15625 0.859375 -2.6875 0.859375 -3.3125 L 0.859375 -10.265625 L 2.9375 -10.265625 L 2.9375 -3.3125 C 2.9375 -3 2.992188 -2.734375 3.109375 -2.515625 C 3.222656 -2.296875 3.378906 -2.113281 3.578125 -1.96875 C 3.773438 -1.832031 3.992188 -1.734375 4.234375 -1.671875 C 4.484375 -1.617188 4.738281 -1.59375 5 -1.59375 C 5.257812 -1.59375 5.515625 -1.617188 5.765625 -1.671875 C 6.015625 -1.734375 6.238281 -1.832031 6.4375 -1.96875 C 6.632812 -2.113281 6.789062 -2.296875 6.90625 -2.515625 C 7.019531 -2.734375 7.078125 -3 7.078125 -3.3125 L 7.078125 -10.265625 L 9.140625 -10.265625 Z M 9.140625 -3.3125 "/></g></g></g><g fill="#002f6d" fill-opacity="1"><g transform="translate(295.405492, 191.941633)"><g><path d="M 6.9375 -2.21875 L 3.265625 -2.21875 L 2.484375 0 L 0.25 0 L 4 -10.265625 L 6.203125 -10.265625 L 9.953125 0 L 7.71875 0 Z M 3.921875 -3.953125 L 6.265625 -3.953125 L 5.078125 -7.265625 Z M 3.921875 -3.953125 "/></g></g></g><g fill="#002f6d" fill-opacity="1"><g transform="translate(308.04276, 191.941633)"><g><path d="M 2.9375 -1.75 L 7.109375 -1.75 L 7.109375 0 L 0.859375 0 L 0.859375 -10.265625 L 2.9375 -10.265625 Z M 2.9375 -1.75 "/></g></g></g><g fill="#002f6d" fill-opacity="1"><g transform="translate(318.158429, 191.941633)"><g><path d="M 4.875 -8.515625 L 3.828125 -8.515625 L 3.828125 -1.75 L 4.875 -1.75 L 4.875 0 L 0.703125 0 L 0.703125 -1.75 L 1.765625 -1.75 L 1.765625 -8.515625 L 0.703125 -8.515625 L 0.703125 -10.265625 L 4.875 -10.265625 Z M 4.875 -8.515625 "/></g></g></g><g fill="#002f6d" fill-opacity="1"><g transform="translate(326.192322, 191.941633)"><g><path d="M 5.328125 -8.515625 L 5.328125 0 L 3.265625 0 L 3.265625 -8.515625 L 0.53125 -8.515625 L 0.53125 -10.265625 L 8.078125 -10.265625 L 8.078125 -8.515625 Z M 5.328125 -8.515625 "/></g></g></g><g fill="#002f6d" fill-opacity="1"><g transform="translate(337.246271, 191.941633)"><g><path d="M 2.578125 -10.265625 L 4.375 -6.875 L 6.171875 -10.265625 L 8.5 -10.265625 L 5.40625 -4.53125 L 5.40625 0 L 3.34375 0 L 3.34375 -4.53125 L 0.25 -10.265625 Z M 2.578125 -10.265625 "/></g></g></g></svg>